# Blender v2.76 (sub 0) OBJ File: 'camera.blend'
# www.blender.org
mtllib camera.mtl
o Cube_Cube.001
v 0.000000 -0.000000 0.000000
v -1.000000 1.000000 1.000000
v -1.000000 -1.000000 1.000000
v -1.000000 1.000000 -1.000000
v -1.000000 -1.000000 -1.000000
vn -1.000000 0.000000 0.000000
vn 0.707100 -0.000000 -0.707100
vn 0.707100 -0.000000 0.707100
vn 0.707100 0.707100 0.000000
vn 0.707100 -0.707100 0.000000
usemtl None
s off
f 5//1 3//1 2//1 4//1
f 1//2 5//2 4//2
f 3//3 1//3 2//3
f 1//4 4//4 2//4
f 3//5 5//5 1//5
